<?xml version="1.0" encoding="utf-8"?>
<!-- Generator: Adobe Illustrator 25.1.0, SVG Export Plug-In . SVG Version: 6.00 Build 0)  -->
<svg version="1.1" id="Capa_1" xmlns="http://www.w3.org/2000/svg" xmlns:xlink="http://www.w3.org/1999/xlink" x="0px" y="0px"
	 viewBox="0 0 512 512" style="enable-background:new 0 0 512 512;" xml:space="preserve">
<style type="text/css">
	.st0{fill:#6C5CE7;}
</style>
<g>
	<g>
		<path class="st0" d="M136,210c-24.8,0-45,20.2-45,45v122c0,24.8,20.2,45,45,45s45-20.2,45-45V255C181,230.2,160.8,210,136,210z"/>
	</g>
</g>
<g>
	<g>
		<path class="st0" d="M61,255c0-4.3,0.6-8.5,1.3-12.6C44.2,248.2,31,265,31,285v62c0,20,13.2,36.8,31.3,42.6
			c-0.7-4.1-1.3-8.3-1.3-12.6V255z"/>
	</g>
</g>
<g>
	<g>
		<path class="st0" d="M376,210c-24.8,0-45,20.2-45,45v122c0,24.8,20.2,45,45,45c4.5,0,8.8-0.9,12.9-2.1
			c-5.6,18.5-22.6,32.1-42.9,32.1h-47.8c-6.2-17.4-22.7-30-42.2-30c-24.8,0-45,20.2-45,45s20.2,45,45,45c19.5,0,36-12.6,42.2-30H346
			c41.4,0,75-33.6,75-75v-30V255C421,230.2,400.8,210,376,210z"/>
	</g>
</g>
<g>
	<g>
		<path class="st0" d="M449.7,242.4c0.7,4.1,1.3,8.3,1.3,12.6v122c0,4.3-0.6,8.5-1.3,12.6C467.8,383.8,481,367,481,347v-62
			C481,265,467.8,248.2,449.7,242.4z"/>
	</g>
</g>
<g>
	<g>
		<path class="st0" d="M256,0C131.9,0,31,100.9,31,225v0.4c8.9-6.8,19.3-11.7,30.7-13.9C68.7,110.3,153.1,30,256,30
			s187.3,80.3,194.3,181.4c11.4,2.2,21.7,7.2,30.7,13.9V225C481,100.9,380.1,0,256,0z"/>
	</g>
</g>
</svg>
