<?xml version="1.0" encoding="utf-8"?>
<!-- Generator: Adobe Illustrator 25.1.0, SVG Export Plug-In . SVG Version: 6.00 Build 0)  -->
<svg version="1.1" id="Capa_1" xmlns="http://www.w3.org/2000/svg" xmlns:xlink="http://www.w3.org/1999/xlink" x="0px" y="0px"
	 viewBox="0 0 512 512" style="enable-background:new 0 0 512 512;" xml:space="preserve">
<style type="text/css">
	.st0{fill:#6C5CE7;}
</style>
<path class="st0" d="M467,1H45C20.2,1,0,21.2,0,46v420c0,24.8,20.2,45,45,45h422c24.8,0,45-20.2,45-45V46C512,21.2,491.8,1,467,1z
	 M45,31h422c8.3,0,15,6.7,15,15v75H30V46C30,37.7,36.7,31,45,31z M467,481H45c-8.3,0-15-6.7-15-15V151h452v315
	C482,474.3,475.3,481,467,481z"/>
<path class="st0" d="M306.9,197.2c-7.6-3.3-16.4,0.3-19.7,7.9l-90,210c-3.3,7.6,0.3,16.4,7.9,19.7c7.6,3.3,16.4-0.3,19.7-7.9l90-210
	C318.1,209.3,314.5,200.5,306.9,197.2L306.9,197.2z"/>
<path class="st0" d="M177.7,246.6c-5.2-6.5-14.6-7.5-21.1-2.3l-75,60c-7.5,6-7.5,17.4,0,23.4l75,60c6.5,5.2,15.9,4.1,21.1-2.3
	c5.2-6.5,4.1-15.9-2.3-21.1L115,316l60.4-48.3C181.8,262.5,182.9,253.1,177.7,246.6L177.7,246.6z"/>
<path class="st0" d="M430.4,304.3l-75-60c-6.5-5.2-15.9-4.1-21.1,2.3c-5.2,6.5-4.1,15.9,2.3,21.1L397,316l-60.4,48.3
	c-6.5,5.2-7.5,14.6-2.3,21.1c5.2,6.5,14.6,7.5,21.1,2.3l75-60C437.9,321.7,437.9,310.3,430.4,304.3z"/>
<circle class="st0" cx="76" cy="76" r="15"/>
<circle class="st0" cx="136" cy="76" r="15"/>
<circle class="st0" cx="196" cy="76" r="15"/>
<path class="st0" d="M346,91h90c8.3,0,15-6.7,15-15s-6.7-15-15-15h-90c-8.3,0-15,6.7-15,15S337.7,91,346,91z"/>
</svg>
